HIERARCHY
ROOT ui
{
	 OFFSET 0 0 0
	 CHANNELS 3 XPosition YPosition Z Position
	 EndSite
	 {
	 OFFSET 0 -1 0
	 }
}
ROOT li
{
	 OFFSET 0 0 0
	 CHANNELS 3 XPosition YPosition Z Position
	 EndSite
	 {
	 OFFSET 0 -1 0
	 }
}
ROOT ul
{
	 OFFSET 0 0 0
	 CHANNELS 3 XPosition YPosition Z Position
	 EndSite
	 {
	 OFFSET 0 -1 0
	 }
}
ROOT ll
{
	 OFFSET 0 0 0
	 CHANNELS 3 XPosition YPosition Z Position
	 EndSite
	 {
	 OFFSET 0 -1 0
	 }
}
ROOT tt
{
	 OFFSET 0 0 0
	 CHANNELS 3 XPosition YPosition Z Position
	 EndSite
	 {
	 OFFSET 0 -1 0
	 }
}
ROOT tb
{
	 OFFSET 0 0 0
	 CHANNELS 3 XPosition YPosition Z Position
	 EndSite
	 {
	 OFFSET 0 -1 0
	 }
}
ROOT td
{
	 OFFSET 0 0 0
	 CHANNELS 3 XPosition YPosition Z Position
	 EndSite
	 {
	 OFFSET 0 -1 0
	 }
}
ROOT v
{
	 OFFSET 0 0 0
	 CHANNELS 3 XPosition YPosition Z Position
	 EndSite
	 {
	 OFFSET 0 -1 0
	 }
}
ROOT bn
{
	 OFFSET 0 0 0
	 CHANNELS 3 XPosition YPosition Z Position
	 EndSite
	 {
	 OFFSET 0 -1 0
	 }
}
MOTION
Frames: 21
Frame Time: 0.002
-9.246999770402908E-5	0.0016264100074768067	0		0.43925469970703124	-2.437447021484375	0		-1.1418685302734375	0.024327613830566405	0		-0.8167782592773437	-2.6103203125	0		1.4303421630859374	-0.7334849853515625	0		3.1301533203125	-0.06709490203857423	0		4.61896826171875	7.18841016292572E-4	0		5.58507177734375	0.051407840728759764	0		-0.1176694564819336	5.98656982421875	0		
-0.022359958648681642	0.005840106010437012	0		0.45291177368164065	-2.441989501953125	0		-1.13814306640625	0.02793061637878418	0		-0.732259765625	-2.6224482421875	0		1.4351650390625	-0.7267928466796875	0		3.15394287109375	-0.06073927307128906	0		4.630693359375	0.004398684978485107	0		5.59716162109375	0.07494820404052735	0		-0.23549783325195311	5.97783251953125	0		
0.005350955009460449	0.007995025157928467	0		0.4449174499511719	-2.431038818359375	0		-1.1384913330078126	0.0276373348236084	0		-0.80029638671875	-2.613260009765625	0		1.4379373779296876	-0.72303173828125	0		3.138408447265625	-0.06950733947753907	0		4.63034619140625	0.004374261856079102	0		5.59692138671875	0.0749762954711914	0		-0.10368012237548828	5.99673291015625	0		
-0.023041061401367188	0.005379558086395264	0		0.46082708740234374	-2.42558056640625	0		-1.142911376953125	0.023450794219970702	0		-0.743516357421875	-2.614741943359375	0		1.4345535888671874	-0.7271146850585938	0		3.157374755859375	-0.05598473358154297	0		4.62205712890625	0.006552313804626465	0		5.5966904296875	0.07506095123291015	0		-0.25100180053710935	5.9656552734375	0		
0.0016148589849472046	0.003647028923034668	0		0.44246337890625	-2.43336572265625	0		-1.1491204833984374	0.028326019287109375	0		-0.7806732788085937	-2.61318115234375	0		1.4312093505859376	-0.7301741333007813	0		3.13191650390625	-0.062486061096191405	0		4.621740234375	0.006585997104644775	0		5.593498046875	0.061506309509277345	0		-0.12015129089355468	5.98563330078125	0		
0.008040999412536621	-0.00967331600189209	0		0.45005447387695313	-2.444685546875	0		-1.1435242919921875	0.02296744155883789	0		-0.7340820922851562	-2.62539697265625	0		1.4309520263671875	-0.73027587890625	0		3.143515869140625	-0.06775797271728516	0		4.63627099609375	-0.0016745790243148804	0		5.5962705078125	0.0753723907470703	0		-0.12074591064453125	5.985453125	0		
0.004140109062194824	0.007255866050720215	0		0.42706765747070313	-2.437326416015625	0		-1.132835693359375	0.020522600173950196	0		-0.8009857177734375	-2.6141591796875	0		1.4368719482421874	-0.72348583984375	0		3.146168212890625	-0.07181481170654297	0		4.6191591796875	0.005768383979797363	0		5.60020068359375	0.056342418670654294	0		-0.10416819763183593	5.99193017578125	0		
0.017756610870361327	-1.7299599945545197E-4	0		0.4808839416503906	-2.44158642578125	0		-1.0649766845703126	0.02388382339477539	0		-0.7291858520507812	-2.6198642578125	0		1.4397408447265625	-0.7206102905273437	0		3.159385009765625	-0.05106973648071289	0		4.62890478515625	0.00465685510635376	0		5.59889111328125	0.08780175018310547	0		-0.2371195068359375	5.973607421875	0		
0.003714833974838257	0.0070101318359375	0		0.45281961059570314	-2.4410810546875	0		-1.14013330078125	0.02630939292907715	0		-0.7441591796875	-2.615697021484375	0		1.4334361572265626	-0.7275223388671875	0		3.11597021484375	-0.06110837173461914	0		4.63870849609375	0.004564048767089844	0		5.59282861328125	0.062434822082519534	0		-0.12234256744384765	5.9850361328125	0		
0.022384899139404297	-0.0014867340326309205	0		0.49379806518554686	-2.4410234375	0		-1.069412353515625	0.019652702331542968	0		-0.7452261352539062	-2.617808837890625	0		1.4333167724609375	-0.7275467529296875	0		3.14578955078125	-0.06268400955200196	0		4.6305966796875	0.006869211196899414	0		5.59272607421875	0.06274465179443359	0		-0.1218195571899414	5.98391259765625	0		
-0.017895320892333984	-0.008719490051269532	0		0.41394436645507815	-2.433390380859375	0		-1.1444954833984375	0.022103389739990233	0		-0.7343873291015625	-2.626157958984375	0		1.430170166015625	-0.730492431640625	0		3.13067578125	-0.062291316986083985	0		4.62530810546875	-8.736770153045655E-4	0		5.59264794921875	0.06307821273803711	0		-0.12223802185058594	5.9838251953125	0		
0.022176532745361327	-0.001634032964706421	0		0.45282012939453126	-2.441259033203125	0		-1.14050146484375	0.02589320945739746	0		-0.80316162109375	-2.61680908203125	0		1.3953155517578124	-0.7207537841796875	0		3.149881591796875	-0.048608425140380856	0		4.628345703125	0.00522243595123291	0		5.5891474609375	0.07745025634765625	0		-0.10741510009765624	5.9934326171875	0		
-0.018644399642944336	0.010170745849609374	0		0.41917987060546874	-2.4265810546875	0		-1.1405643310546876	0.02578095817565918	0		-0.7291538696289063	-2.620461669921875	0		1.439300537109375	-0.7206682739257813	0		3.13948779296875	-0.0642972412109375	0		4.623453125	0.013495282173156738	0		5.595529296875	0.07748863983154297	0		-0.24020295715332032	5.97415283203125	0		
0.014035025596618652	-0.0035660660266876223	0		0.4788858642578125	-2.444863037109375	0		-1.1446885986328126	0.021765289306640626	0		-0.8030101928710938	-2.6169892578125	0		1.4362327880859376	-0.723581787109375	0		3.155636474609375	-0.05553102493286133	0		4.6251181640625	-3.6857599020004273E-4	0		5.59137939453125	0.09537815856933594	0		-0.12232354736328124	5.98261572265625	0		
-0.024832942962646484	0.004212862014770508	0		0.4323639221191406	-2.425897216796875	0		-1.144712890625	0.021674795150756834	0		-0.7449241943359375	-2.61827880859375	0		1.4331600341796875	-0.7274882202148437	0		3.134599365234375	-0.055980903625488285	0		4.63026171875	0.007703464984893799	0		5.59252685546875	0.06455152130126954	0		-0.12360465240478516	5.98359375	0		
0.022041000366210938	-0.0018000049591064453	0		0.46822491455078125	-2.437658203125	0		-1.1447249755859374	0.02159248733520508	0		-0.81567578125	-2.6108603515625	0		1.433181884765625	-0.7274537963867187	0		3.125634521484375	-0.05368169784545898	0		4.623376953125	0.014027744293212891	0		5.589080078125	0.07894734954833985	0		-0.12388677978515625	5.9835576171875	0		
-0.018119646072387696	-0.008989055633544922	0		0.4532486877441406	-2.44135009765625	0		-1.1337725830078125	0.019287391662597655	0		-0.7307913208007812	-2.62269287109375	0		1.4362939453125	-0.7234806518554687	0		3.145275390625	-0.07098465728759766	0		4.6330380859375	-0.002001410961151123	0		5.5955029296875	0.0789925994873047	0		-0.2735355224609375	5.96663818359375	0		
0.02014545822143555	0.0031928489208221437	0		0.4594977722167969	-2.43448095703125	0		-1.127439208984375	0.03508800888061524	0		-0.7974564208984375	-2.6113544921875	0		1.4393883056640624	-0.720507080078125	0		3.166921630859375	-0.040320209503173825	0		4.6354560546875	0.018123273849487306	0		5.598466796875	0.09131407165527344	0		-0.10823612976074219	5.99116259765625	0		
-0.02177984046936035	0.007043428897857666	0		0.4446438293457031	-2.43217333984375	0		-1.1406422119140625	0.02529277801513672	0		-0.7434428100585937	-2.616529541015625	0		1.4363590087890625	-0.723408447265625	0		3.130477294921875	-0.06146244049072266	0		4.63025244140625	0.008393409729003907	0		5.59551904296875	0.07969477844238282	0		-0.12463619232177735	5.98347021484375	0		
0.006861967086791992	-0.010577191352844238	0		0.4426973571777344	-2.434136474609375	0		-1.144724365234375	0.02131058120727539	0		-0.7694806518554688	-2.62303955078125	0		1.4363878173828124	-0.7233751220703125	0		3.13048046875	-0.061363861083984374	0		4.62337890625	0.014693655967712403	0		5.5925556640625	0.066329833984375	0		-0.12388687133789063	5.9824228515625	0		
-0.028927238464355468	1.4293399453163148E-4	0		0.46871463012695314	-2.437680908203125	0		-1.1447294921875	0.02124538993835449	0		-0.7442906494140625	-2.618609619140625	0		1.4364100341796875	-0.7233456420898438	0		3.14547509765625	-0.0615827751159668	0		4.630248046875	0.00869638442993164	0		5.59255859375	0.06663842010498047	0		-0.12508966827392579	5.98341552734375	0		
